<?xml version="1.0" encoding="utf-8"?>
<!-- Generator: Adobe Illustrator 20.1.0, SVG Export Plug-In . SVG Version: 6.00 Build 0)  -->
<svg version="1.1" id="Logo" xmlns="http://www.w3.org/2000/svg" xmlns:xlink="http://www.w3.org/1999/xlink" x="0px" y="0px"
	 viewBox="0 0 903.8 174.6" style="enable-background:new 0 0 903.8 174.6;" xml:space="preserve">
<style type="text/css">
	.st0{fill:#FFFFFF;}
</style>
<path id="Symbol" class="st0" d="M264.5,0.2c-55.3,0-100.2,45-100.2,100.5c0,27.8,11.3,53,29.5,71.2c1.2,1.2,3.2,0.9,4-0.6
	c8.5-15.5,23.5-27.6,41.8-33.5c-11.9-8-19.8-21.7-19.8-37.2c0-24.7,20-44.8,44.7-44.8s44.7,20.1,44.7,44.8
	c0,15.5-7.8,29.1-19.8,37.2c18.3,5.9,33.2,18,41.8,33.5c0.8,1.4,2.8,1.7,4,0.6c18.2-18.2,29.5-43.4,29.5-71.2
	C364.7,45.1,319.8,0.2,264.5,0.2z"/>
<path id="Forus" class="st0" d="M49.2,39.2v27.2h86.1c1.4,0,2.6,1.2,2.6,2.6v34c0,1.4-1.2,2.6-2.6,2.6H49.2v68.8H2.6
	c-1.4,0-2.6-1.2-2.6-2.6v-9.4v-152V2.6C0,1.2,1.2,0,2.6,0h134.8c1.4,0,2.6,1.2,2.6,2.6v34c0,1.4-1.2,2.6-2.6,2.6L49.2,39.2
	L49.2,39.2z M502.6,110.4l33.4,60.3c1,1.7-0.3,3.8-2.3,3.8h-45.5c-1,0-1.9-0.6-2.3-1.4l-28.5-57.2h-23v56c0,1.4-1.2,2.6-2.6,2.6H392
	c-1.4,0-2.6-1.2-2.6-2.6V0h87.2c38.7,0,60.6,25.6,60.6,58.1C537.4,88.4,518.8,104.6,502.6,110.4L502.6,110.4z M470,39.2h-33
	c-1.4,0-2.5,1.1-2.5,2.5v32.4c0,1.4,1.1,2.5,2.5,2.5h33c11.8,0,21.7-6.5,21.7-18.8C491.7,46,481.7,39.2,470,39.2L470,39.2z
	 M727.2,100.5c0,43.4-26.4,74-82,74c-56.1,0-82.5-30.9-82.5-73.8l0.3-98c0-1.4,1.1-2.5,2.5-2.5h40.6c1.4,0,2.5,1.1,2.5,2.5
	l-0.2,96.6c0,20.7,12.3,35.6,36.8,35.6c24,0,36.6-14.9,36.6-35.6L682,2.7c0-1.4,1.1-2.5,2.5-2.5h40.4c1.4,0,2.5,1.1,2.5,2.5
	L727.2,100.5L727.2,100.5z M822.9,37.3c-13.3,0-19.1,5.1-19.1,12.1c0,21.5,99.9,5.8,99.9,68.6c0,33.9-26.2,56.4-73.7,56.4
	c-34.6,0-59.1-10-76.7-25.3c-1-0.9-1.1-2.4-0.4-3.4l21.1-28.5c0.9-1.2,2.6-1.4,3.7-0.4c12.7,11.3,31.5,20.4,54.4,20.4
	c15.6,0,25.2-5.8,25.2-13.9c0-23-100.2-4.6-100.2-69.6c0-28.3,25.2-53.6,70.5-53.6c27.4,0,51.3,7.5,69.8,21.9
	c1.1,0.9,1.3,2.5,0.4,3.6L876,52.8c-0.9,1.1-2.4,1.2-3.5,0.4C858.1,42.7,839.7,37.3,822.9,37.3L822.9,37.3z"/>
</svg>
